<svg width="200" height="408" viewBox="0 0 200 408" fill="none" xmlns="http://www.w3.org/2000/svg">
<path d="M168.767 407.968L30.1755 407.894C22.1705 407.888 14.4953 404.705 8.83693 399.042C3.17853 393.38 -1.96968e-06 385.702 0 377.697L0.0741491 30.1861C0.0741481 26.2203 0.855616 22.2932 2.37394 18.6295C3.89226 14.9658 6.11766 11.6371 8.92295 8.83383C11.7282 6.03051 15.0584 3.80745 18.7232 2.29171C22.388 0.775956 26.3156 -0.00277564 30.2814 7.43342e-06L168.873 0.127106C176.878 0.132721 184.553 3.31663 190.211 8.97901C195.87 14.6414 199.048 22.3188 199.048 30.3238L198.985 377.793C198.982 381.758 198.198 385.684 196.678 389.347C195.158 393.009 192.931 396.337 190.125 399.139C187.319 401.941 183.989 404.163 180.324 405.678C176.66 407.193 172.732 407.971 168.767 407.968Z" fill="#292F2E"/>
<path d="M168.725 12.4134H141.854C140.085 12.4551 138.405 13.1965 137.182 14.4752C135.959 15.7538 135.293 17.4653 135.33 19.2344V24.1065C135.349 24.9829 135.196 25.8545 134.879 26.6716C134.562 27.4887 134.086 28.2353 133.48 28.8688C132.875 29.5022 132.15 30.01 131.348 30.3633C130.545 30.7165 129.681 30.9083 128.805 30.9275H76.4295C75.5532 30.9083 74.6892 30.7165 73.887 30.3633C73.0848 30.01 72.36 29.5022 71.7541 28.8688C71.1482 28.2353 70.6731 27.4887 70.3558 26.6716C70.0386 25.8545 69.8854 24.9829 69.9051 24.1065V19.1708C69.942 17.4018 69.2759 15.6903 68.0529 14.4116C66.8298 13.133 65.1496 12.3915 63.3806 12.3498H53.9223H30.4089C24.7908 12.3498 19.4027 14.5816 15.4301 18.5543C11.4575 22.5269 9.22566 27.9149 9.22566 33.5331L9.16211 372.687C9.16209 378.296 11.3866 383.676 15.3478 387.648C19.309 391.619 24.6834 393.857 30.2924 393.871L168.619 393.945C174.237 393.945 179.625 391.713 183.598 387.74C187.57 383.768 189.802 378.38 189.802 372.762L189.876 33.6072C189.879 27.9927 187.653 22.6068 183.687 18.6328C179.721 14.6588 174.339 12.4218 168.725 12.4134Z" fill="white"/>
<path d="M189.865 33.5648C189.865 27.9467 187.633 22.5587 183.661 18.586C179.688 14.6134 174.3 12.3816 168.682 12.3816H141.811C140.042 12.4233 138.362 13.1647 137.139 14.4434C135.916 15.7221 135.25 17.4336 135.287 19.2026V24.0748C135.306 24.9511 135.153 25.8227 134.836 26.6398C134.519 27.4569 134.043 28.2036 133.437 28.837C132.832 29.4704 132.107 29.9783 131.305 30.3315C130.502 30.6848 129.638 30.8765 128.762 30.8958H76.3865C75.5102 30.8765 74.6462 30.6848 73.844 30.3315C73.0418 29.9783 72.317 29.4704 71.7112 28.837C71.1053 28.2036 70.6301 27.4569 70.3128 26.6398C69.9956 25.8227 69.8424 24.9511 69.8621 24.0748V19.1708C69.899 17.4018 69.2329 15.6903 68.0099 14.4116C66.7868 13.133 65.1066 12.3915 63.3376 12.3498H53.8793H30.3659C24.7478 12.3498 19.3597 14.5816 15.3871 18.5543C11.4145 22.5269 9.18269 27.9149 9.18269 33.5331L9.11914 65.9646H189.855L189.865 33.5648Z" fill="#F5F5F5"/>
<path d="M175.163 45.4805C175.163 45.5758 171.922 45.6923 167.929 45.7241C165.517 45.807 163.103 45.7646 160.695 45.597C165.513 45.311 170.342 45.2722 175.163 45.4805Z" fill="#292F2E"/>
<path d="M175.227 49.1769C172.825 49.3843 170.414 49.4656 168.004 49.4206C165.592 49.5035 163.177 49.4611 160.77 49.2935C160.77 49.1981 164 49.0922 168.004 49.0498C172.007 49.0075 175.227 49.0816 175.227 49.1769Z" fill="#292F2E"/>
<path d="M175.227 52.884C175.227 52.9793 171.997 53.0852 168.004 53.117C165.592 53.2 163.177 53.1611 160.77 53.0005C165.584 52.7145 170.409 52.6756 175.227 52.884Z" fill="#292F2E"/>
<path d="M49.3047 301.586L50.0355 300.05C51.3225 301.094 52.9332 301.656 54.5899 301.639C56.9625 301.639 57.9898 300.717 57.9898 299.521C57.9898 296.163 49.6436 298.281 49.6436 293.166C49.6436 291.047 51.2959 289.225 54.9394 289.225C56.5033 289.196 58.0419 289.623 59.3667 290.454L58.7207 292.011C57.5902 291.29 56.2801 290.901 54.9394 290.888C52.5987 290.888 51.5925 291.873 51.5925 293.081C51.5925 296.449 59.9387 294.341 59.9387 299.436C59.9387 301.554 58.244 303.355 54.6429 303.355C52.7111 303.409 50.8216 302.783 49.3047 301.586Z" fill="#292F2E"/>
<path d="M61.5484 297.942C61.537 297.225 61.6737 296.513 61.9499 295.85C62.2261 295.188 62.636 294.589 63.1538 294.092C63.6716 293.595 64.2863 293.211 64.9595 292.962C65.6328 292.713 66.35 292.606 67.0666 292.647C67.9082 292.597 68.7473 292.778 69.4938 293.17C70.2402 293.562 70.8658 294.15 71.3032 294.871L69.8734 295.792C69.5674 295.321 69.1458 294.937 68.6488 294.675C68.1519 294.414 67.5962 294.284 67.0348 294.299C66.0956 294.349 65.2114 294.758 64.5644 295.441C63.9174 296.123 63.5567 297.028 63.5567 297.969C63.5567 298.909 63.9174 299.814 64.5644 300.497C65.2114 301.18 66.0956 301.588 67.0348 301.639C67.5967 301.657 68.1535 301.528 68.651 301.267C69.1485 301.005 69.5697 300.619 69.8734 300.145L71.3032 301.056C70.8646 301.777 70.2391 302.365 69.4932 302.758C68.7473 303.152 67.9087 303.336 67.0666 303.291C66.3459 303.331 65.6248 303.221 64.9486 302.968C64.2724 302.716 63.6558 302.326 63.1375 301.824C62.6192 301.321 62.2105 300.717 61.937 300.049C61.6635 299.381 61.5312 298.664 61.5484 297.942Z" fill="#292F2E"/>
<path d="M82.0223 296.862V303.153H80.2324V301.777C79.8346 302.294 79.3122 302.702 78.714 302.964C78.1158 303.225 77.4612 303.33 76.8112 303.27C74.4493 303.27 72.9453 302.01 72.9453 300.198C72.9453 298.387 74.0045 297.148 77.182 297.148H80.1794V296.777C80.1794 295.189 79.2473 294.257 77.3832 294.257C76.1865 294.247 75.0217 294.642 74.0786 295.379L73.2843 293.96C74.5341 293.051 76.0501 292.581 77.5951 292.625C80.4124 292.625 82.0223 294.002 82.0223 296.862ZM80.137 299.965V298.514H77.2243C75.3496 298.514 74.8201 299.235 74.8201 300.124C74.8201 301.014 75.6885 301.819 77.1184 301.819C77.7524 301.866 78.3851 301.712 78.9269 301.379C79.4687 301.047 79.892 300.552 80.137 299.965Z" fill="#292F2E"/>
<path d="M95.4305 297.148V303.153H93.5346V297.37C93.5346 295.326 92.4755 294.32 90.7278 294.32C90.2707 294.286 89.8116 294.353 89.3836 294.517C88.9555 294.681 88.5691 294.938 88.2521 295.269C87.9351 295.6 87.6955 295.997 87.5503 296.432C87.4052 296.867 87.3582 297.328 87.4127 297.784V303.153H85.5273V292.721H87.3173V294.299C87.7647 293.74 88.3396 293.296 88.9938 293.005C89.648 292.714 90.3625 292.584 91.0773 292.625C93.6723 292.625 95.4305 294.087 95.4305 297.148Z" fill="#292F2E"/>
<path d="M108.83 297.148V303.153H106.944V297.37C106.944 295.326 105.885 294.32 104.127 294.32C103.67 294.285 103.211 294.352 102.784 294.516C102.356 294.68 101.97 294.937 101.654 295.269C101.338 295.6 101.099 295.998 100.955 296.433C100.811 296.868 100.766 297.329 100.822 297.784V303.153H98.9688V292.721H100.78V294.299C101.226 293.738 101.801 293.294 102.455 293.002C103.11 292.711 103.825 292.582 104.54 292.625C107.04 292.625 108.83 294.087 108.83 297.148Z" fill="#292F2E"/>
<path d="M112.007 289.49C111.996 289.234 112.063 288.981 112.197 288.763C112.332 288.545 112.529 288.373 112.763 288.268C112.996 288.163 113.256 288.131 113.508 288.175C113.761 288.219 113.994 288.338 114.178 288.516C114.362 288.694 114.489 288.923 114.542 289.174C114.594 289.424 114.571 289.685 114.474 289.922C114.377 290.159 114.211 290.362 113.998 290.504C113.785 290.646 113.534 290.721 113.278 290.719C113.113 290.723 112.95 290.695 112.796 290.635C112.643 290.575 112.503 290.485 112.385 290.371C112.267 290.257 112.172 290.12 112.107 289.969C112.042 289.817 112.008 289.655 112.007 289.49ZM112.335 292.721H114.231V303.154H112.335V292.721Z" fill="#292F2E"/>
<path d="M127.735 297.148V303.153H125.839V297.37C125.839 295.326 124.78 294.32 123.022 294.32C122.565 294.285 122.106 294.352 121.679 294.516C121.251 294.68 120.865 294.937 120.549 295.269C120.233 295.6 119.994 295.998 119.85 296.433C119.707 296.868 119.661 297.329 119.717 297.784V303.153H117.832V292.721H119.643V294.299C120.091 293.74 120.665 293.296 121.32 293.005C121.974 292.714 122.688 292.584 123.403 292.625C125.935 292.625 127.735 294.087 127.735 297.148Z" fill="#292F2E"/>
<path d="M141.271 292.721V301.745C141.271 305.42 139.406 307.094 135.858 307.094C134.068 307.169 132.308 306.618 130.88 305.537L131.781 304.086C132.924 304.983 134.341 305.462 135.795 305.441C138.263 305.441 139.385 304.297 139.385 301.935V301.109C138.916 301.639 138.336 302.058 137.686 302.336C137.036 302.614 136.332 302.745 135.625 302.719C134.943 302.75 134.262 302.643 133.622 302.404C132.982 302.164 132.398 301.797 131.904 301.326C131.41 300.854 131.017 300.287 130.749 299.659C130.48 299.031 130.342 298.355 130.342 297.672C130.342 296.989 130.48 296.314 130.749 295.686C131.017 295.058 131.41 294.491 131.904 294.019C132.398 293.547 132.982 293.181 133.622 292.941C134.262 292.701 134.943 292.594 135.625 292.625C136.356 292.596 137.085 292.736 137.753 293.033C138.422 293.331 139.013 293.778 139.481 294.341V292.721H141.271ZM139.417 297.667C139.457 296.947 139.28 296.231 138.909 295.612C138.538 294.994 137.989 294.501 137.334 294.198C136.68 293.895 135.949 293.795 135.237 293.912C134.525 294.029 133.865 294.358 133.342 294.855C132.819 295.351 132.457 295.994 132.303 296.699C132.149 297.404 132.211 298.139 132.48 298.808C132.749 299.478 133.213 300.051 133.811 300.454C134.41 300.856 135.116 301.07 135.837 301.067C136.301 301.103 136.767 301.041 137.206 300.885C137.644 300.729 138.045 300.483 138.383 300.162C138.72 299.842 138.986 299.454 139.165 299.025C139.343 298.595 139.429 298.132 139.417 297.667Z" fill="#292F2E"/>
<path d="M143.983 301.914C143.98 301.737 144.013 301.562 144.079 301.398C144.146 301.234 144.245 301.085 144.371 300.96C144.496 300.836 144.646 300.738 144.81 300.672C144.975 300.607 145.151 300.575 145.328 300.58C145.684 300.58 146.027 300.721 146.279 300.974C146.531 301.226 146.673 301.568 146.673 301.925C146.673 302.282 146.531 302.624 146.279 302.876C146.027 303.128 145.684 303.27 145.328 303.27C145.15 303.271 144.973 303.237 144.809 303.17C144.644 303.102 144.495 303.002 144.37 302.875C144.244 302.749 144.145 302.599 144.079 302.434C144.013 302.269 143.98 302.092 143.983 301.914Z" fill="#292F2E"/>
<path d="M148.453 301.914C148.45 301.737 148.483 301.562 148.55 301.398C148.617 301.234 148.716 301.085 148.841 300.96C148.967 300.836 149.117 300.738 149.281 300.672C149.446 300.607 149.622 300.575 149.798 300.58C150.155 300.58 150.497 300.721 150.75 300.974C151.002 301.226 151.144 301.568 151.144 301.925C151.144 302.282 151.002 302.624 150.75 302.876C150.497 303.128 150.155 303.27 149.798 303.27C149.62 303.271 149.444 303.237 149.28 303.17C149.115 303.102 148.966 303.002 148.84 302.875C148.715 302.749 148.616 302.599 148.55 302.434C148.483 302.269 148.45 302.092 148.453 301.914Z" fill="#292F2E"/>
<path d="M152.922 301.914C152.919 301.737 152.952 301.562 153.019 301.398C153.085 301.234 153.185 301.085 153.31 300.96C153.436 300.836 153.585 300.738 153.75 300.672C153.914 300.607 154.09 300.575 154.267 300.58C154.624 300.58 154.966 300.721 155.218 300.974C155.471 301.226 155.612 301.568 155.612 301.925C155.612 302.282 155.471 302.624 155.218 302.876C154.966 303.128 154.624 303.27 154.267 303.27C154.089 303.271 153.913 303.237 153.748 303.17C153.584 303.102 153.434 303.002 153.309 302.875C153.184 302.749 153.085 302.599 153.018 302.434C152.952 302.269 152.919 302.092 152.922 301.914Z" fill="#292F2E"/>
<path d="M38.7539 194.229V200.785H45.3101V194.229V187.673H38.7539V194.229Z" fill="#292F2E"/>
<path d="M45.3101 154.881H38.7539V161.438H45.3101V154.881Z" fill="#292F2E"/>
<path d="M85.8238 227.084H79.2676V233.641H85.8238V227.084Z" fill="#292F2E"/>
<path d="M45.3101 167.994V174.55H38.7539V181.106H45.3101V187.673H51.8663H58.4226V194.229H64.9788V187.673H71.535V181.106V174.55H64.9788V181.106H58.4226H51.8663V174.55V167.994V161.438H45.3101V167.994Z" fill="#292F2E"/>
<path d="M58.4234 154.881H51.8672V161.438H58.4234H64.9796V154.881H58.4234Z" fill="#292F2E"/>
<path d="M87.9313 207.596H91.4583V201.04H87.9313H84.4043V207.596H87.9313Z" fill="#292F2E"/>
<path d="M71.5367 161.438H64.9805V167.994H71.5367V161.438Z" fill="#292F2E"/>
<path d="M117.439 187.673H110.883V194.229H117.439V187.673Z" fill="#292F2E"/>
<path d="M123.996 115.533H117.439V122.09H123.996V115.533Z" fill="#292F2E"/>
<path d="M84.6476 167.994V161.438H91.2038V154.881H84.6476V148.325H78.0914V154.881H71.5352V161.438H78.0914V167.994V174.55V181.106V187.673H84.6476V181.106V174.55H91.2038V167.994H84.6476Z" fill="#292F2E"/>
<path d="M117.439 233.567H123.995V227.01H117.439H110.883V233.567H117.439Z" fill="#292F2E"/>
<path d="M110.884 115.533H104.328V122.09H110.884V115.533Z" fill="#292F2E"/>
<path d="M109.243 167.994V161.438H102.687V154.881H96.1304V161.438V167.994H89.5742V174.55H96.1304H102.687V167.994H109.243Z" fill="#292F2E"/>
<path d="M146.25 154.881H139.693V161.438H146.25V154.881Z" fill="#292F2E"/>
<path d="M78.2828 187.673H71.7266V194.229H78.2828V187.673Z" fill="#292F2E"/>
<path d="M104.328 148.325V141.769H110.884V135.202H117.441H123.997V128.646H117.441V122.09H110.884V128.646H104.328V135.202H97.7719V141.769H91.2051V148.325H97.7719H104.328Z" fill="#292F2E"/>
<path d="M104.328 194.229V187.673H110.884V181.106H104.328H97.7719V187.673H91.2051V194.229H97.7719H104.328Z" fill="#292F2E"/>
<path d="M123.996 220.454V213.898H117.44H110.884V207.342H104.328V213.898H97.7714V220.454H91.2047H84.6484V227.01H91.2047H97.7714H104.328V220.454H110.884V227.01H117.44V220.454H123.996Z" fill="#292F2E"/>
<path d="M97.771 122.09V115.533H91.2042H84.648V122.09H78.0918V128.646H84.648H91.2042V122.09H97.771Z" fill="#292F2E"/>
<path d="M97.771 128.646H91.2148V135.202H97.771V128.646Z" fill="#292F2E"/>
<path d="M114.156 154.881H107.6V161.438V167.994V174.55H114.156H120.723V167.994H114.156V161.438H120.723V154.881H127.279V148.325H120.723V141.769H114.156V148.325V154.881Z" fill="#292F2E"/>
<path d="M91.2047 135.213H84.6484V141.769H91.2047V135.213Z" fill="#292F2E"/>
<path d="M110.883 200.785V207.342H117.439H123.995V200.785H130.551H137.108V194.229H130.551H123.995H117.439V200.785H110.883Z" fill="#292F2E"/>
<path d="M146.25 174.55H139.693V181.106H146.25V174.55Z" fill="#292F2E"/>
<path d="M123.996 181.106H117.439V187.662H123.996V181.106Z" fill="#292F2E"/>
<path d="M140.392 161.438H133.836H127.279V167.994H133.836V174.55H140.392V167.994V161.438Z" fill="#292F2E"/>
<path d="M137.109 181.106H130.553V187.662H137.109V181.106Z" fill="#292F2E"/>
<path d="M64.9796 220.581H84.6589V194.219H58.2963V200.785H51.8672V207.342H58.2963V213.898H51.8672V220.454H58.2963V220.581H58.4234V227.01H51.8672V240.123H58.4234V233.545H64.9796V220.581ZM79.6067 199.26V215.656H63.2108V199.26H79.6067Z" fill="#292F2E"/>
<path d="M150.232 194.229H156.789V187.673H150.232H143.676H137.109V194.229H143.676H150.232Z" fill="#292F2E"/>
<path d="M150.232 167.994H156.789V161.438V154.881H150.232V161.438V167.994Z" fill="#292F2E"/>
<path d="M98.0152 201.04H91.459V207.596V214.152H98.0152V207.596V201.04Z" fill="#292F2E"/>
<path d="M163.343 194.229H156.787V200.785H163.343V194.229Z" fill="#292F2E"/>
<path d="M163.343 181.106V174.55H156.787V181.106V187.673H163.343V181.106Z" fill="#292F2E"/>
<path d="M45.3101 227.01H38.7539V233.567V240.133H45.3101V233.567V227.01Z" fill="#292F2E"/>
<path d="M163.344 148.325V115.491H130.51V148.325H163.344ZM135.467 143.4V120.448H158.419V143.4H135.467Z" fill="#292F2E"/>
<path d="M153.505 125.373H140.393V138.486H153.505V125.373Z" fill="#292F2E"/>
<path d="M163.344 207.342H130.51V240.123H163.344V207.342ZM135.467 235.208V212.256H158.419V235.208H135.467Z" fill="#292F2E"/>
<path d="M153.505 217.181H140.393V230.294H153.505V217.181Z" fill="#292F2E"/>
<path d="M38.6699 115.533V148.367H71.4298V115.533H38.6699ZM66.5365 120.448V143.4H43.5844V120.448H66.5365Z" fill="#292F2E"/>
<path d="M61.6105 125.373H48.498V138.486H61.6105V125.373Z" fill="#292F2E"/>
<path d="M29.3169 138.39V115.089C29.1678 112.951 29.8254 110.834 31.1598 109.157C31.9588 108.275 32.9427 107.581 34.0412 107.123C35.1398 106.665 36.3259 106.456 37.5148 106.509H62.0026C62.1965 106.509 62.3823 106.432 62.5194 106.295C62.6564 106.158 62.7335 105.972 62.7335 105.779C62.7335 105.585 62.6564 105.399 62.5194 105.262C62.3823 105.125 62.1965 105.048 62.0026 105.048H37.8114C35.7627 104.945 33.7301 105.458 31.9754 106.52C30.7142 107.36 29.6781 108.496 28.958 109.829C28.2378 111.162 27.8556 112.652 27.8447 114.167C27.7811 118.001 27.8447 121.846 27.8447 125.67V138.38C27.8663 138.56 27.9531 138.725 28.0888 138.846C28.2244 138.966 28.3995 139.033 28.5808 139.033C28.7621 139.033 28.9371 138.966 29.0728 138.846C29.2084 138.725 29.2952 138.56 29.3169 138.38V138.39Z" fill="#17907C"/>
<path d="M59.8844 251.202H36.5828C34.4454 251.346 32.331 250.689 30.6515 249.359C29.7706 248.559 29.0766 247.575 28.619 246.476C28.1614 245.378 27.9513 244.192 28.0036 243.004V218.484C28.0036 218.29 27.9266 218.104 27.7895 217.967C27.6525 217.83 27.4666 217.753 27.2728 217.753C27.0789 217.753 26.893 217.83 26.756 217.967C26.6189 218.104 26.5419 218.29 26.5419 218.484V242.707C26.4404 244.756 26.953 246.788 28.0142 248.543C28.8539 249.804 29.9904 250.839 31.3238 251.557C32.6572 252.275 34.1467 252.655 35.6613 252.663C39.4955 252.727 43.3297 252.663 47.1638 252.663H59.8738C60.0676 252.663 60.2535 252.586 60.3906 252.449C60.5276 252.312 60.6046 252.126 60.6046 251.932C60.6046 251.739 60.5276 251.553 60.3906 251.416C60.2535 251.279 60.0676 251.202 59.8738 251.202H59.8844Z" fill="#17907C"/>
<path d="M171.987 218.251V241.553C172.137 243.691 171.479 245.807 170.144 247.484C169.346 248.367 168.362 249.062 167.264 249.519C166.165 249.977 164.979 250.186 163.79 250.132H139.27C139.076 250.132 138.89 250.209 138.753 250.346C138.616 250.483 138.539 250.669 138.539 250.863C138.539 251.056 138.616 251.242 138.753 251.379C138.89 251.516 139.076 251.593 139.27 251.593H163.493C165.542 251.696 167.574 251.184 169.329 250.121C170.589 249.282 171.624 248.145 172.343 246.812C173.061 245.478 173.441 243.989 173.449 242.474C173.523 238.64 173.449 234.806 173.449 230.972V218.262C173.449 218.068 173.372 217.882 173.235 217.745C173.098 217.608 172.912 217.531 172.718 217.531C172.524 217.531 172.339 217.608 172.201 217.745C172.064 217.882 171.987 218.068 171.987 218.262V218.251Z" fill="#17907C"/>
<path d="M139.693 106.52H162.994C165.134 106.374 167.25 107.035 168.926 108.374C169.811 109.17 170.508 110.154 170.965 111.253C171.423 112.352 171.631 113.539 171.574 114.728V139.28C171.574 139.474 171.651 139.66 171.788 139.797C171.925 139.934 172.111 140.011 172.305 140.011C172.498 140.011 172.684 139.934 172.821 139.797C172.958 139.66 173.035 139.474 173.035 139.28V115.025C173.138 112.973 172.626 110.937 171.563 109.178C170.723 107.918 169.587 106.883 168.253 106.165C166.92 105.446 165.431 105.066 163.916 105.058C160.082 104.995 156.248 105.058 152.413 105.058H139.703C139.51 105.058 139.324 105.135 139.187 105.272C139.05 105.409 138.973 105.595 138.973 105.789C138.973 105.983 139.05 106.169 139.187 106.306C139.324 106.443 139.51 106.52 139.703 106.52H139.693Z" fill="#17907C"/>
<path d="M155.315 347.532C155.315 347.681 130.33 347.808 99.5291 347.808C68.7286 347.808 43.7324 347.681 43.7324 347.532C43.7324 347.384 68.7075 347.257 99.5291 347.257C130.351 347.257 155.315 347.374 155.315 347.532Z" fill="#292F2E"/>
</svg>
