<svg width="70" height="57" viewBox="0 0 70 57" fill="none" xmlns="http://www.w3.org/2000/svg">
<g clip-path="url(#clip0_447_2709)">
<path d="M69.005 41.3079L58.1872 28.7689C57.9927 28.5435 57.8833 28.2571 57.8781 27.9595C57.8728 27.6619 57.9721 27.3718 58.1586 27.1398L68.9763 13.6685C69.129 13.4783 69.2237 13.2481 69.2493 13.0056C69.2748 12.763 69.2301 12.5182 69.1205 12.3003C69.0109 12.0824 68.8409 11.9006 68.6309 11.7765C68.4209 11.6524 68.1797 11.5913 67.936 11.6004L50.8121 12.2368C47.2901 12.3654 43.814 13.0782 40.5257 14.3462C38.7787 15.0174 37.0943 15.8415 35.4922 16.8089C32.0634 18.9112 28.2712 20.353 24.3118 21.0596L23.0391 21.3014L17.1339 22.3387L15.1358 22.6886C15.1645 22.7926 15.1827 22.8992 15.1899 23.0068L15.3076 25.0717C15.3192 25.2804 15.2895 25.4894 15.2203 25.6867C15.1511 25.8839 15.0437 26.0656 14.9042 26.2214C14.7648 26.3771 14.596 26.5038 14.4075 26.5942C14.219 26.6847 14.0146 26.7371 13.8058 26.7485H13.7167C13.3098 26.7491 12.9181 26.5938 12.6222 26.3144C12.3263 26.0351 12.1487 25.653 12.1259 25.2467L12.0145 23.22L1.05998 25.129C0.765011 25.1807 0.497696 25.3347 0.305071 25.564C0.112445 25.7932 0.00683879 26.0831 0.00683594 26.3826V31.7628C0.0120716 32.0651 0.124775 32.3557 0.324743 32.5825C0.524711 32.8093 0.798887 32.9575 1.09816 33.0005C2.78898 33.2598 4.33105 34.116 5.44517 35.414C6.55929 36.712 7.17181 38.366 7.17181 40.0766C7.17181 41.7872 6.55929 43.4412 5.44517 44.7392C4.33105 46.0372 2.78898 46.8934 1.09816 47.1527C0.798887 47.1957 0.524711 47.3439 0.324743 47.5707C0.124775 47.7975 0.0120716 48.088 0.00683594 48.3903V55.6573C0.00883469 55.8413 0.0507107 56.0227 0.129577 56.189C0.208443 56.3552 0.322432 56.5024 0.46367 56.6203C0.604908 56.7383 0.770041 56.8242 0.947691 56.8722C1.12534 56.9201 1.31128 56.929 1.49269 56.8982L13.774 54.741L13.6022 51.712C13.5905 51.5031 13.6201 51.2939 13.6892 51.0964C13.7583 50.899 13.8657 50.717 14.0052 50.561C14.1446 50.405 14.3134 50.278 14.5019 50.1873C14.6905 50.0965 14.8951 50.0438 15.104 50.0321C15.3129 50.0204 15.522 50.05 15.7195 50.1191C15.917 50.1882 16.099 50.2956 16.2549 50.435C16.4109 50.5745 16.538 50.7433 16.6287 50.9319C16.7195 51.1204 16.7722 51.3249 16.7839 51.5339L16.9303 54.1874L24.2481 52.9147C28.2076 52.2081 31.9998 50.7663 35.4286 48.664C40.0804 45.8305 45.3816 44.2387 50.8248 44.041L68.0855 43.4046C68.3241 43.3953 68.5553 43.3191 68.7527 43.1846C68.95 43.0501 69.1056 42.8628 69.2015 42.6441C69.2974 42.4253 69.3298 42.184 69.2951 41.9478C69.2603 41.7115 69.1598 41.4897 69.005 41.3079ZM12.3327 29.052C12.321 28.8431 12.3506 28.6339 12.4197 28.4365C12.4889 28.239 12.5962 28.057 12.7357 27.901C12.8751 27.745 13.0439 27.618 13.2325 27.5273C13.421 27.4365 13.6255 27.3838 13.8345 27.3721C14.0434 27.3604 14.2526 27.39 14.45 27.4591C14.6475 27.5282 14.8295 27.6356 14.9855 27.775C15.1415 27.9145 15.2685 28.0833 15.3592 28.2718C15.45 28.4604 15.5027 28.6649 15.5144 28.8738L15.7276 32.6505C15.7396 32.8592 15.7104 33.0683 15.6416 33.2657C15.5728 33.4632 15.4657 33.6451 15.3265 33.8011C15.1873 33.9571 15.0188 34.0842 14.8305 34.175C14.6421 34.2659 14.4378 34.3187 14.229 34.3304H14.1367C13.7298 34.3311 13.3381 34.1758 13.0422 33.8964C12.7463 33.6171 12.5687 33.235 12.5459 32.8287L12.3327 29.052ZM12.7559 36.6085C12.7323 36.1866 12.8772 35.7726 13.1588 35.4575C13.4405 35.1425 13.8357 34.9522 14.2576 34.9286C14.6796 34.905 15.0936 35.0499 15.4086 35.3316C15.7237 35.6132 15.9139 36.0084 15.9376 36.4304L16.1507 40.2102C16.1742 40.6312 16.0295 41.0443 15.7485 41.3588C15.4675 41.6732 15.0732 41.8632 14.6522 41.887H14.5599C14.153 41.8876 13.7613 41.7323 13.4654 41.4529C13.1694 41.1736 12.9918 40.7915 12.9691 40.3852L12.7559 36.6085ZM15.069 49.4435H14.9767C14.5698 49.4441 14.1781 49.2888 13.8822 49.0095C13.5862 48.7301 13.4086 48.348 13.3859 47.9417L13.179 44.1714C13.1554 43.7495 13.3004 43.3355 13.582 43.0204C13.8636 42.7054 14.2589 42.5151 14.6808 42.4915C15.1027 42.4678 15.5167 42.6128 15.8318 42.8944C16.1468 43.1761 16.3371 43.5713 16.3607 43.9932L16.5739 47.7731C16.5956 48.1941 16.4492 48.6065 16.1671 48.9197C15.8849 49.2329 15.4899 49.4213 15.069 49.4435Z" fill="#17907C"/>
<path d="M46.5675 13.9454C46.1537 10.5674 44.6632 7.41247 42.3168 4.94752L42.1736 4.80118L41.8841 4.51163C41.8364 4.46391 41.7854 4.41938 41.7377 4.36847C38.7811 1.55925 34.8584 -0.00712967 30.78 -0.00712967C26.7016 -0.00712967 22.7789 1.55925 19.8222 4.36847C19.7745 4.41938 19.7236 4.46391 19.6759 4.51163L19.3863 4.80118L19.2432 4.94752C16.4091 7.9301 14.8408 11.8947 14.8675 16.0089C14.8942 20.1231 16.5138 24.067 19.3863 27.0126C19.4341 27.0571 19.4818 27.1112 19.5295 27.1557L19.6759 27.2989L30.78 38.4062L41.8841 27.3085L42.0304 27.1653L42.1736 27.0221C43.8421 25.3131 45.1037 23.2497 45.8644 20.9857C46.6252 18.7216 46.8655 16.3151 46.5675 13.9454ZM30.78 26.074C28.9378 26.0738 27.1354 25.5385 25.5919 24.533C24.0483 23.5276 22.8301 22.0953 22.0854 20.4105C21.3407 18.7256 21.1015 16.8606 21.3969 15.0423C21.6924 13.224 22.5097 11.5307 23.7496 10.1683C24.9895 8.80589 26.5985 7.83302 28.381 7.36803C30.1635 6.90303 32.0427 6.96592 33.7901 7.54904C35.5375 8.13215 37.0779 9.21039 38.2239 10.6526C39.3699 12.0949 40.0723 13.839 40.2455 15.673C40.2741 15.9657 40.2869 16.2648 40.2869 16.5671C40.2873 17.8158 40.0417 19.0524 39.5641 20.2062C39.0865 21.36 38.3863 22.4084 37.5035 23.2915C36.6207 24.1746 35.5725 24.8752 34.4188 25.3532C33.2652 25.8311 32.0287 26.0771 30.78 26.0771V26.074Z" fill="#292F2E"/>
</g>
<defs>
<clipPath id="clip0_447_2709">
<rect width="69.3163" height="56.93" fill="white"/>
</clipPath>
</defs>
</svg>
