<svg width="70" height="57" viewBox="0 0 70 57" fill="none" xmlns="http://www.w3.org/2000/svg">
<g clip-path="url(#clip0_447_2691)">
<path d="M69.004 41.3079L58.1863 28.7689C57.9917 28.5435 57.8823 28.2571 57.8771 27.9595C57.8719 27.6619 57.9711 27.3718 58.1576 27.1398L68.9754 13.6685C69.128 13.4783 69.2227 13.2481 69.2483 13.0056C69.2738 12.763 69.2291 12.5182 69.1195 12.3003C69.0099 12.0824 68.84 11.9006 68.63 11.7765C68.4199 11.6524 68.1787 11.5913 67.935 11.6004L50.8111 12.2368C47.2891 12.3654 43.813 13.0782 40.5247 14.3462C38.7777 15.0174 37.0933 15.8415 35.4913 16.8089C32.0624 18.9112 28.2703 20.353 24.3108 21.0596L23.0381 21.3014L17.1329 22.3387L15.1348 22.6886C15.1636 22.7926 15.1817 22.8992 15.1889 23.0068L15.3066 25.0717C15.3182 25.2804 15.2886 25.4894 15.2194 25.6867C15.1501 25.8839 15.0427 26.0656 14.9032 26.2214C14.7638 26.3771 14.595 26.5038 14.4065 26.5942C14.218 26.6847 14.0136 26.7371 13.8049 26.7485H13.7158C13.3088 26.7491 12.9171 26.5938 12.6212 26.3144C12.3253 26.0351 12.1477 25.653 12.1249 25.2467L12.0136 23.22L1.05901 25.129C0.764035 25.1807 0.49672 25.3347 0.304094 25.564C0.111469 25.7932 0.00586223 26.0831 0.00585938 26.3826V31.7628C0.0110951 32.0651 0.123798 32.3557 0.323766 32.5825C0.523734 32.8093 0.79791 32.9575 1.09719 33.0005C2.788 33.2598 4.33007 34.116 5.44419 35.414C6.55832 36.712 7.17083 38.366 7.17083 40.0766C7.17083 41.7872 6.55832 43.4412 5.44419 44.7392C4.33007 46.0372 2.788 46.8934 1.09719 47.1527C0.79791 47.1957 0.523734 47.3439 0.323766 47.5707C0.123798 47.7975 0.0110951 48.088 0.00585938 48.3903V55.6573C0.00785812 55.8413 0.0497342 56.0227 0.1286 56.189C0.207466 56.3552 0.321455 56.5024 0.462693 56.6203C0.603931 56.7383 0.769064 56.8242 0.946715 56.8722C1.12436 56.9201 1.3103 56.929 1.49171 56.8982L13.773 54.741L13.6012 51.712C13.5895 51.5031 13.6191 51.2939 13.6882 51.0964C13.7574 50.899 13.8647 50.717 14.0042 50.561C14.1436 50.405 14.3124 50.278 14.501 50.1873C14.6895 50.0965 14.8941 50.0438 15.103 50.0321C15.3119 50.0204 15.5211 50.05 15.7186 50.1191C15.916 50.1882 16.098 50.2956 16.254 50.435C16.41 50.5745 16.537 50.7433 16.6277 50.9319C16.7185 51.1204 16.7712 51.3249 16.7829 51.5339L16.9293 54.1874L24.2472 52.9147C28.2067 52.2081 31.9988 50.7663 35.4276 48.664C40.0794 45.8305 45.3807 44.2387 50.8238 44.041L68.0845 43.4046C68.3231 43.3953 68.5544 43.3191 68.7517 43.1846C68.9491 43.0501 69.1046 42.8628 69.2005 42.6441C69.2964 42.4253 69.3288 42.184 69.2941 41.9478C69.2594 41.7115 69.1588 41.4897 69.004 41.3079ZM12.3317 29.052C12.32 28.8431 12.3496 28.6339 12.4187 28.4365C12.4879 28.239 12.5952 28.057 12.7347 27.901C12.8741 27.745 13.0429 27.618 13.2315 27.5273C13.42 27.4365 13.6246 27.3838 13.8335 27.3721C14.0424 27.3604 14.2516 27.39 14.4491 27.4591C14.6466 27.5282 14.8285 27.6356 14.9845 27.775C15.1405 27.9145 15.2675 28.0833 15.3582 28.2718C15.449 28.4604 15.5017 28.6649 15.5134 28.8738L15.7266 32.6505C15.7386 32.8592 15.7094 33.0683 15.6406 33.2657C15.5718 33.4632 15.4647 33.6451 15.3255 33.8011C15.1864 33.9571 15.0178 34.0842 14.8295 34.175C14.6412 34.2659 14.4368 34.3187 14.228 34.3304H14.1357C13.7288 34.3311 13.3371 34.1758 13.0412 33.8964C12.7453 33.6171 12.5677 33.235 12.5449 32.8287L12.3317 29.052ZM12.7549 36.6085C12.7313 36.1866 12.8762 35.7726 13.1579 35.4575C13.4395 35.1425 13.8347 34.9522 14.2567 34.9286C14.6786 34.905 15.0926 35.0499 15.4076 35.3316C15.7227 35.6132 15.913 36.0084 15.9366 36.4304L16.1498 40.2102C16.1732 40.6312 16.0285 41.0443 15.7475 41.3588C15.4665 41.6732 15.0722 41.8632 14.6512 41.887H14.5589C14.152 41.8876 13.7603 41.7323 13.4644 41.4529C13.1685 41.1736 12.9909 40.7915 12.9681 40.3852L12.7549 36.6085ZM15.068 49.4435H14.9757C14.5688 49.4441 14.1771 49.2888 13.8812 49.0095C13.5853 48.7301 13.4077 48.348 13.3849 47.9417L13.1781 44.1714C13.1544 43.7495 13.2994 43.3355 13.581 43.0204C13.8626 42.7054 14.2579 42.5151 14.6798 42.4915C15.1017 42.4678 15.5158 42.6128 15.8308 42.8944C16.1459 43.1761 16.3361 43.5713 16.3597 43.9932L16.5729 47.7731C16.5946 48.1941 16.4483 48.6065 16.1661 48.9197C15.8839 49.2329 15.489 49.4213 15.068 49.4435Z" fill="#292F2E"/>
<path d="M46.5675 13.9454C46.1537 10.5674 44.6632 7.41247 42.3168 4.94752L42.1736 4.80118L41.8841 4.51163C41.8364 4.46391 41.7854 4.41938 41.7377 4.36847C38.7811 1.55925 34.8584 -0.00712967 30.78 -0.00712967C26.7016 -0.00712967 22.7789 1.55925 19.8222 4.36847C19.7745 4.41938 19.7236 4.46391 19.6759 4.51163L19.3863 4.80118L19.2432 4.94752C16.4091 7.9301 14.8408 11.8947 14.8675 16.0089C14.8942 20.1231 16.5138 24.067 19.3863 27.0126C19.4341 27.0571 19.4818 27.1112 19.5295 27.1557L19.6759 27.2989L30.78 38.4062L41.8841 27.3085L42.0304 27.1653L42.1736 27.0221C43.8421 25.3131 45.1037 23.2497 45.8644 20.9857C46.6252 18.7216 46.8655 16.3151 46.5675 13.9454ZM30.78 26.074C28.9378 26.0738 27.1354 25.5385 25.5919 24.533C24.0483 23.5276 22.8301 22.0953 22.0854 20.4105C21.3407 18.7256 21.1015 16.8606 21.3969 15.0423C21.6924 13.224 22.5097 11.5307 23.7496 10.1683C24.9895 8.80589 26.5985 7.83302 28.381 7.36803C30.1635 6.90303 32.0427 6.96592 33.7901 7.54904C35.5375 8.13215 37.0779 9.21039 38.2239 10.6526C39.3699 12.0949 40.0723 13.839 40.2455 15.673C40.2741 15.9657 40.2869 16.2648 40.2869 16.5671C40.2873 17.8158 40.0417 19.0524 39.5641 20.2062C39.0865 21.36 38.3863 22.4084 37.5035 23.2915C36.6207 24.1746 35.5725 24.8752 34.4188 25.3532C33.2652 25.8311 32.0287 26.0771 30.78 26.0771V26.074Z" fill="#FFB52F"/>
</g>
<defs>
<clipPath id="clip0_447_2691">
<rect width="69.3163" height="56.93" fill="white"/>
</clipPath>
</defs>
</svg>
