<svg width="54" height="32" viewBox="0 0 54 32" fill="none" xmlns="http://www.w3.org/2000/svg">
<g clip-path="url(#clip0_3051_2930)">
<path d="M36.1484 11.398L33.1634 7.93817C33.1098 7.876 33.0796 7.79697 33.0781 7.71485C33.0767 7.63272 33.1041 7.55269 33.1555 7.48867L36.1405 3.77158C36.1826 3.71907 36.2087 3.65557 36.2158 3.58864C36.2228 3.52171 36.2105 3.45415 36.1802 3.39403C36.15 3.3339 36.1031 3.28374 36.0451 3.2495C35.9872 3.21527 35.9206 3.19841 35.8534 3.20093L31.1284 3.37651C30.1566 3.412 29.1975 3.60869 28.2901 3.95857C27.8081 4.14376 27.3433 4.37114 26.9013 4.63808C25.9552 5.21818 24.9088 5.616 23.8163 5.81097L23.4651 5.8777L21.8357 6.1639L21.2844 6.26046C21.2923 6.28915 21.2973 6.31856 21.2993 6.34826L21.3318 6.91802C21.335 6.97562 21.3268 7.03328 21.3077 7.08771C21.2886 7.14214 21.2589 7.19227 21.2205 7.23524C21.182 7.27821 21.1354 7.31317 21.0834 7.33812C21.0314 7.36308 20.975 7.37755 20.9174 7.38069H20.8928C20.7805 7.38086 20.6724 7.338 20.5908 7.26093C20.5091 7.18385 20.4601 7.07842 20.4538 6.96631L20.4231 6.40708L17.4005 6.93383C17.3191 6.94808 17.2453 6.99058 17.1922 7.05385C17.139 7.11711 17.1099 7.1971 17.1099 7.27973V8.76428C17.1113 8.8477 17.1424 8.92787 17.1976 8.99045C17.2528 9.05303 17.3284 9.09392 17.411 9.10579C17.8775 9.17734 18.303 9.41358 18.6104 9.77173C18.9179 10.1299 19.0869 10.5863 19.0869 11.0583C19.0869 11.5303 18.9179 11.9867 18.6104 12.3448C18.303 12.703 17.8775 12.9392 17.411 13.0108C17.3284 13.0226 17.2528 13.0635 17.1976 13.1261C17.1424 13.1887 17.1113 13.2689 17.1099 13.3523V15.3574C17.1104 15.4082 17.122 15.4583 17.1437 15.5041C17.1655 15.55 17.1969 15.5906 17.2359 15.6232C17.2749 15.6557 17.3205 15.6794 17.3695 15.6926C17.4185 15.7059 17.4698 15.7083 17.5199 15.6998L20.9086 15.1046L20.8612 14.2688C20.858 14.2112 20.8661 14.1535 20.8852 14.099C20.9043 14.0445 20.9339 13.9943 20.9724 13.9512C21.0109 13.9082 21.0574 13.8731 21.1095 13.8481C21.1615 13.8231 21.2179 13.8085 21.2756 13.8053C21.3332 13.802 21.3909 13.8102 21.4454 13.8293C21.4999 13.8484 21.5501 13.878 21.5932 13.9165C21.6362 13.9549 21.6713 14.0015 21.6963 14.0535C21.7213 14.1056 21.7359 14.162 21.7391 14.2197L21.7795 14.9518L23.7987 14.6007C24.8912 14.4057 25.9376 14.0079 26.8837 13.4278C28.1673 12.6459 29.63 12.2067 31.1319 12.1522L35.8946 11.9766C35.9605 11.974 36.0243 11.953 36.0787 11.9159C36.1332 11.8787 36.1761 11.8271 36.2026 11.7667C36.229 11.7064 36.238 11.6398 36.2284 11.5746C36.2188 11.5094 36.1911 11.4482 36.1484 11.398ZM20.5109 8.0163C20.5077 7.95865 20.5158 7.90094 20.5349 7.84645C20.554 7.79195 20.5836 7.74175 20.6221 7.69871C20.6606 7.65566 20.7072 7.62062 20.7592 7.59558C20.8112 7.57054 20.8676 7.55599 20.9253 7.55276C20.9829 7.54953 21.0406 7.55769 21.0951 7.57677C21.1496 7.59584 21.1998 7.62547 21.2429 7.66395C21.2859 7.70243 21.321 7.749 21.346 7.80102C21.3711 7.85305 21.3856 7.90949 21.3888 7.96713L21.4476 9.00922C21.451 9.06682 21.4429 9.1245 21.4239 9.17898C21.4049 9.23346 21.3754 9.28365 21.337 9.3267C21.2986 9.36975 21.2521 9.40482 21.2001 9.42988C21.1481 9.45494 21.0918 9.46951 21.0342 9.47276H21.0087C20.8964 9.47294 20.7883 9.43008 20.7067 9.353C20.625 9.27593 20.576 9.17049 20.5697 9.05838L20.5109 8.0163ZM20.6277 10.1013C20.6212 9.98493 20.6612 9.87069 20.7389 9.78376C20.8166 9.69683 20.9256 9.64433 21.0421 9.63781C21.1585 9.63129 21.2727 9.67129 21.3596 9.749C21.4466 9.82671 21.4991 9.93577 21.5056 10.0522L21.5644 11.0951C21.5709 11.2113 21.531 11.3253 21.4534 11.4121C21.3759 11.4988 21.2671 11.5512 21.1509 11.5578H21.1255C21.0132 11.558 20.9051 11.5151 20.8234 11.4381C20.7418 11.361 20.6928 11.2555 20.6865 11.1434L20.6277 10.1013ZM21.2659 13.6429H21.2405C21.1282 13.643 21.0201 13.6002 20.9384 13.5231C20.8568 13.446 20.8078 13.3406 20.8015 13.2285L20.7444 12.1882C20.7379 12.0717 20.7779 11.9575 20.8556 11.8706C20.9333 11.7836 21.0424 11.7311 21.1588 11.7246C21.2752 11.7181 21.3895 11.7581 21.4764 11.8358C21.5633 11.9135 21.6158 12.0226 21.6224 12.139L21.6812 13.182C21.6872 13.2981 21.6468 13.4119 21.5689 13.4983C21.4911 13.5848 21.3821 13.6367 21.2659 13.6429Z" fill="white"/>
<path d="M29.957 3.84743C29.8428 2.91537 29.4315 2.04483 28.7841 1.36468L28.7446 1.3243L28.6647 1.24441C28.6515 1.23124 28.6375 1.21895 28.6243 1.20491C27.8085 0.429766 26.7261 -0.00244141 25.6007 -0.00244141C24.4754 -0.00244141 23.393 0.429766 22.5772 1.20491C22.564 1.21895 22.55 1.23124 22.5368 1.24441L22.4569 1.3243L22.4174 1.36468C21.6354 2.18766 21.2027 3.2816 21.2101 4.41682C21.2174 5.55205 21.6643 6.64028 22.4569 7.45303C22.4701 7.46532 22.4833 7.48025 22.4964 7.49254L22.5368 7.53204L25.6007 10.5969L28.6647 7.53468L28.705 7.49517L28.7446 7.45567C29.2049 6.98409 29.553 6.41477 29.7629 5.79005C29.9729 5.16534 30.0392 4.50132 29.957 3.84743ZM25.6007 7.19405C25.0924 7.19401 24.5951 7.04629 24.1692 6.76886C23.7433 6.49143 23.4072 6.09624 23.2017 5.63133C22.9962 5.16642 22.9302 4.65182 23.0117 4.15011C23.0932 3.64839 23.3188 3.18117 23.6609 2.80524C24.003 2.42931 24.447 2.16087 24.9388 2.03257C25.4306 1.90426 25.9492 1.92161 26.4313 2.08251C26.9135 2.24341 27.3385 2.54093 27.6547 2.93888C27.9709 3.33684 28.1647 3.8181 28.2125 4.32414C28.2204 4.40491 28.224 4.48743 28.224 4.57083C28.2241 4.91539 28.1563 5.2566 28.0245 5.57497C27.8927 5.89333 27.6995 6.18261 27.4559 6.42629C27.2123 6.66998 26.9231 6.86328 26.6048 6.99516C26.2865 7.12704 25.9453 7.19493 25.6007 7.19493V7.19405Z" fill="#FFB52F"/>
</g>
<path d="M7.57466 19.2175V20.6544H4.74635V28.6191H2.99736V20.6544H0.156045V19.2175H7.57466ZM10.3019 21.9482V28.6191H8.69593V21.9482H10.3019ZM10.5425 20.0042C10.5425 20.1429 10.5143 20.2729 10.4579 20.3943C10.4016 20.5157 10.3257 20.6219 10.2304 20.7129C10.1393 20.8039 10.031 20.8776 9.90527 20.9339C9.77957 20.986 9.6452 21.012 9.50216 21.012C9.36345 21.012 9.23125 20.986 9.10554 20.9339C8.98418 20.8776 8.87798 20.8039 8.78695 20.7129C8.69593 20.6219 8.62224 20.5157 8.56589 20.3943C8.51387 20.2729 8.48787 20.1429 8.48787 20.0042C8.48787 19.8611 8.51387 19.7268 8.56589 19.6011C8.62224 19.4754 8.69593 19.367 8.78695 19.276C8.87798 19.1849 8.98418 19.1134 9.10554 19.0614C9.23125 19.0051 9.36345 18.9769 9.50216 18.9769C9.6452 18.9769 9.77957 19.0051 9.90527 19.0614C10.031 19.1134 10.1393 19.1849 10.2304 19.276C10.3257 19.367 10.4016 19.4754 10.4579 19.6011C10.5143 19.7268 10.5425 19.8611 10.5425 20.0042ZM16.81 23.3591C16.7624 23.4198 16.7147 23.4675 16.667 23.5022C16.6237 23.5369 16.5586 23.5542 16.4719 23.5542C16.3896 23.5542 16.3094 23.5304 16.2314 23.4827C16.1534 23.4307 16.0602 23.3743 15.9518 23.3136C15.8434 23.2486 15.7134 23.1923 15.5617 23.1446C15.4143 23.0926 15.2301 23.0666 15.009 23.0666C14.7273 23.0666 14.4802 23.1186 14.2678 23.2226C14.0554 23.3223 13.8777 23.4675 13.7347 23.6582C13.596 23.8489 13.4919 24.0808 13.4226 24.3539C13.3532 24.6227 13.3185 24.9283 13.3185 25.2707C13.3185 25.6261 13.3554 25.9425 13.4291 26.22C13.5071 26.4974 13.6176 26.7314 13.7607 26.9222C13.9037 27.1085 14.0771 27.2516 14.2808 27.3513C14.4845 27.4466 14.7143 27.4943 14.97 27.4943C15.2258 27.4943 15.4316 27.464 15.5877 27.4033C15.7481 27.3383 15.8824 27.2689 15.9908 27.1952C16.0992 27.1172 16.1924 27.0479 16.2704 26.9872C16.3527 26.9222 16.4438 26.8896 16.5435 26.8896C16.6735 26.8896 16.771 26.9395 16.836 27.0392L17.2977 27.6244C17.12 27.8324 16.9271 28.008 16.719 28.151C16.511 28.2897 16.2942 28.4024 16.0688 28.4891C15.8478 28.5715 15.618 28.63 15.3796 28.6647C15.1412 28.6993 14.905 28.7167 14.6709 28.7167C14.2591 28.7167 13.8712 28.6408 13.5071 28.4891C13.143 28.3331 12.8244 28.1077 12.5513 27.8129C12.2826 27.5182 12.068 27.1584 11.9076 26.7336C11.7516 26.3045 11.6736 25.8168 11.6736 25.2707C11.6736 24.7809 11.7429 24.3279 11.8816 23.9118C12.0247 23.4913 12.2327 23.1294 12.5058 22.826C12.7789 22.5182 13.117 22.2777 13.5201 22.1043C13.9232 21.9309 14.387 21.8442 14.9115 21.8442C15.41 21.8442 15.8456 21.9244 16.2184 22.0848C16.5955 22.2452 16.9336 22.4749 17.2327 22.774L16.81 23.3591ZM19.9447 18.9574V24.4905H20.2438C20.3522 24.4905 20.4367 24.4753 20.4974 24.4449C20.5581 24.4146 20.6231 24.3583 20.6925 24.2759L22.3504 22.2278C22.4241 22.1411 22.5021 22.0739 22.5845 22.0263C22.6669 21.9742 22.7752 21.9482 22.9096 21.9482H24.379L22.3049 24.4254C22.2312 24.5165 22.1554 24.601 22.0774 24.679C21.9993 24.7527 21.9148 24.8177 21.8238 24.8741C21.9148 24.9391 21.995 25.0149 22.0644 25.1016C22.1337 25.1883 22.2031 25.2815 22.2724 25.3812L24.496 28.6191H23.0461C22.9204 28.6191 22.8142 28.5975 22.7275 28.5541C22.6408 28.5108 22.5628 28.4371 22.4935 28.3331L20.7965 25.8038C20.7315 25.7041 20.6665 25.6391 20.6014 25.6088C20.5364 25.5784 20.4389 25.5633 20.3088 25.5633H19.9447V28.6191H18.3388V18.9574H19.9447ZM27.8573 21.8442C28.2778 21.8442 28.6635 21.9114 29.0146 22.0458C29.3701 22.1801 29.6757 22.3774 29.9314 22.6374C30.1871 22.8932 30.3865 23.2096 30.5296 23.5867C30.6726 23.9595 30.7441 24.3864 30.7441 24.8676C30.7441 24.9889 30.7376 25.0908 30.7246 25.1732C30.716 25.2512 30.6964 25.314 30.6661 25.3617C30.6401 25.4051 30.6033 25.4376 30.5556 25.4592C30.5079 25.4766 30.4472 25.4852 30.3735 25.4852H26.2513C26.299 26.1701 26.4832 26.6729 26.804 26.9937C27.1248 27.3144 27.5495 27.4748 28.0784 27.4748C28.3384 27.4748 28.5617 27.4445 28.7481 27.3838C28.9388 27.3231 29.1035 27.2559 29.2422 27.1822C29.3852 27.1085 29.5088 27.0414 29.6128 26.9807C29.7212 26.92 29.8252 26.8896 29.9249 26.8896C29.9899 26.8896 30.0463 26.9027 30.0939 26.9287C30.1416 26.9547 30.1828 26.9915 30.2175 27.0392L30.6856 27.6244C30.5079 27.8324 30.3085 28.008 30.0874 28.151C29.8664 28.2897 29.6345 28.4024 29.3917 28.4891C29.1533 28.5715 28.9084 28.63 28.657 28.6647C28.41 28.6993 28.1694 28.7167 27.9353 28.7167C27.4715 28.7167 27.0402 28.6408 26.6415 28.4891C26.2427 28.3331 25.8959 28.1055 25.6012 27.8064C25.3064 27.503 25.0745 27.1302 24.9055 26.6881C24.7364 26.2416 24.6519 25.7258 24.6519 25.1406C24.6519 24.6855 24.7256 24.2586 24.8729 23.8598C25.0203 23.4567 25.2306 23.1077 25.5036 22.813C25.781 22.5139 26.117 22.2777 26.5114 22.1043C26.9102 21.9309 27.3588 21.8442 27.8573 21.8442ZM27.8898 22.995C27.4217 22.995 27.0554 23.1272 26.791 23.3916C26.5266 23.6561 26.3575 24.031 26.2839 24.5165H29.3007C29.3007 24.3084 29.2725 24.1134 29.2162 23.9313C29.1598 23.7449 29.0731 23.5824 28.9561 23.4437C28.8391 23.305 28.6917 23.1966 28.514 23.1186C28.3363 23.0362 28.1282 22.995 27.8898 22.995ZM34.238 28.7232C33.6615 28.7232 33.2172 28.5606 32.9051 28.2355C32.593 27.9061 32.4369 27.4531 32.4369 26.8766V23.1511H31.7608C31.6741 23.1511 31.5982 23.1229 31.5332 23.0666C31.4725 23.0102 31.4422 22.9257 31.4422 22.813V22.1758L32.515 22.0003L32.8531 20.1797C32.8704 20.093 32.9094 20.0259 32.9701 19.9782C33.0351 19.9305 33.1153 19.9067 33.2107 19.9067H34.0429V22.0068H35.7984V23.1511H34.0429V26.7661C34.0429 26.9742 34.0949 27.1367 34.1989 27.2538C34.303 27.3708 34.4417 27.4293 34.6151 27.4293C34.7148 27.4293 34.7971 27.4185 34.8621 27.3968C34.9315 27.3708 34.99 27.3448 35.0377 27.3188C35.0897 27.2928 35.1352 27.2689 35.1742 27.2472C35.2132 27.2212 35.2522 27.2082 35.2913 27.2082C35.3389 27.2082 35.3779 27.2212 35.4083 27.2472C35.4386 27.2689 35.4711 27.3036 35.5058 27.3513L35.987 28.1315C35.7529 28.3266 35.4841 28.4739 35.1807 28.5736C34.8773 28.6733 34.5631 28.7232 34.238 28.7232ZM48.3285 28.6191H46.625C46.4343 28.6191 46.2761 28.5758 46.1504 28.4891C46.029 28.3981 45.9445 28.2832 45.8968 28.1445L45.3376 26.493H41.7356L41.1765 28.1445C41.1331 28.2659 41.0486 28.3764 40.9229 28.4761C40.7972 28.5715 40.6433 28.6191 40.4612 28.6191H38.7448L42.4118 19.1459H44.6614L48.3285 28.6191ZM42.2428 24.9976H44.8305L43.9592 22.4034C43.9029 22.2387 43.8357 22.0458 43.7577 21.8247C43.684 21.5993 43.6103 21.3566 43.5366 21.0965C43.4673 21.3609 43.3958 21.6058 43.3221 21.8312C43.2484 22.0566 43.179 22.2517 43.114 22.4164L42.2428 24.9976ZM51.4663 28.7232C51.1456 28.7232 50.8617 28.6777 50.6146 28.5866C50.3719 28.4913 50.166 28.3591 49.9969 28.19C49.8322 28.0166 49.7065 27.8086 49.6198 27.5658C49.5331 27.3231 49.4898 27.0522 49.4898 26.7531V23.2681H48.9176C48.8136 23.2681 48.7247 23.2356 48.651 23.1706C48.5774 23.1012 48.5405 23.0015 48.5405 22.8715V22.0848L49.6133 21.8767L50.0099 20.2317C50.0619 20.0237 50.2093 19.9197 50.4521 19.9197H51.5054V21.8897H53.1438V23.2681H51.5054V26.6166C51.5054 26.7726 51.5422 26.9027 51.6159 27.0067C51.6939 27.1064 51.8044 27.1562 51.9475 27.1562C52.0212 27.1562 52.0819 27.1497 52.1295 27.1367C52.1816 27.1194 52.2249 27.102 52.2596 27.0847C52.2986 27.063 52.3333 27.0457 52.3636 27.0327C52.3983 27.0153 52.4373 27.0067 52.4806 27.0067C52.5413 27.0067 52.589 27.0219 52.6237 27.0522C52.6627 27.0782 52.7017 27.1215 52.7407 27.1822L53.3519 28.138C53.0918 28.3331 52.7992 28.4804 52.4741 28.5801C52.149 28.6755 51.8131 28.7232 51.4663 28.7232Z" fill="white"/>
<defs>
<clipPath id="clip0_3051_2930">
<rect width="19.1263" height="15.7086" fill="white" transform="translate(17.1077)"/>
</clipPath>
</defs>
</svg>
